<?xml version="1.0" encoding="utf-8"?>
<!-- Generator: Adobe Illustrator 24.2.0, SVG Export Plug-In . SVG Version: 6.00 Build 0)  -->
<svg version="1.1" id="Capa_1" xmlns="http://www.w3.org/2000/svg" xmlns:xlink="http://www.w3.org/1999/xlink" x="0px" y="0px"
	 viewBox="0 0 595.28 841.89" style="enable-background:new 0 0 595.28 841.89;" xml:space="preserve">
<style type="text/css">
	.st0{fill:#C61718;}
	.st1{fill:#FFFFFF;}
	.st2{fill-rule:evenodd;clip-rule:evenodd;fill:#FFFFFF;}
</style>
<g>
	<g>
		<path class="st0" d="M531.55,113H298.67h-1.16h-0.02h-2.2H63.45c0,0-27.34,2.18-27.34,27.34c0,25.16,0,379.95,0,379.95
			S75.85,643.41,297.51,728l0,0c0.09-0.03,0,0,0,0l0.28-0.11c223.35-84.61,261.11-207.6,261.11-207.6s0-354.79,0-379.95
			C558.89,115.18,531.55,113,531.55,113z"/>
		<path class="st1" d="M297.51,718.88l-1.27-0.5c-83.15-32.27-149.63-73.51-197.6-122.57c-37.1-37.95-50.53-68.05-53.78-76.37
			l-0.23-0.63V140.34c0-12.23,9.83-17.72,19.03-18.8l0.42-0.02h467.07l0.21,0.02c9.19,1.06,19.02,6.54,19.02,18.8v378.53l-0.24,0.61
			c-2.8,7.44-14.35,34.35-45.64,68.58c-32.93,36.01-95.34,87.86-205.7,130.33L297.51,718.88z M51.72,517.48
			c5.83,14.53,53.51,118.79,245.8,193.79c108.26-41.89,169.46-92.69,201.73-128.01c29.65-32.43,40.96-57.81,44.03-65.7V140.34
			c0-8.84-7.77-11.15-12.54-11.73H64.28c-4.78,0.6-12.56,2.92-12.56,11.73V517.48z"/>
		<path class="st1" d="M297.86,485.22h-0.71c-1.12,0-2.02,0.91-2.02,2.01v7.57c0,1.12,0.9,2.02,2.02,2.02h0.71c1.09,0,2-0.9,2-2.02
			v-7.57C299.86,486.13,298.95,485.22,297.86,485.22z"/>
		<path class="st1" d="M284,483.8h-0.7c-1.12,0-2.02,0.91-2.02,2.01v7.57c0,1.11,0.91,2.02,2.02,2.02h0.7c1.12,0,2.02-0.9,2.02-2.02
			v-7.57C286.02,484.71,285.11,483.8,284,483.8z"/>
		<path class="st1" d="M310.61,483.8h-0.7c-1.12,0-2.02,0.91-2.02,2.01v7.57c0,1.11,0.9,2.02,2.02,2.02h0.7
			c1.11,0,2.01-0.9,2.01-2.02v-7.57C312.63,484.71,311.72,483.8,310.61,483.8z"/>
		<path class="st1" d="M297.49,433.19c-50.33,0-91.12,41.3-91.12,92.24c0,27.76,12.11,52.62,31.28,69.54
			c0.01-5.11,0.14-10.67,0.47-16.08c1.06-17.74,34.77-22.94,34.77-22.94c8.9,13.41,22.41,12.81,24.25,12.67l0-0.03
			c0,0,0.05,0,0.11,0.01c0.06-0.01,0.12-0.01,0.12-0.01v0.03c1.83,0.14,15.34,0.74,24.24-12.67c0,0,33.71,5.2,34.78,22.94
			c0.34,5.57,0.45,11.27,0.46,16.49c19.45-16.91,31.77-41.98,31.77-69.95C388.63,474.49,347.83,433.19,297.49,433.19z
			 M297.38,563.04c-14.68,0-21.41-9.88-21.41-9.88l6.49-9.87c0,0,3.08,5.92,15.02,5.92c11.95,0,13.73-5.92,13.73-5.92l6.14,9.69
			C317.35,552.98,312.03,563.04,297.38,563.04z M297.86,543.99c-23.07,0-26.81-39.37-26.81-39.37h52.88
			C323.93,504.62,320.95,543.99,297.86,543.99z M323.5,486.58v11.2c0,1.42-0.91,2.58-2.01,2.58h-49.46c-1.11,0-2.01-1.16-2.01-2.58
			v-11.35c-3.38-1.99-5.66-5.65-5.66-9.84c0-6.31,5.16-11.44,11.52-11.44c2.93,0,5.58,1.09,7.63,2.86
			c1.08-6.76,6.91-11.92,13.98-11.92c6.77,0,12.42,4.74,13.85,11.08c1.85-1.28,4.11-2.03,6.53-2.03c6.36,0,11.54,5.13,11.54,11.44
			C329.41,480.88,327.01,484.61,323.5,486.58z"/>
		<path class="st2" d="M133.68,488.63c-1-0.72-1.92-1.39-2.85-2.07c-4.48-3.25-8.94-6.49-13.4-9.76c-0.25-0.18-0.41-0.15-0.64,0.02
			c-5.32,3.87-10.63,7.73-15.95,11.59c-0.07,0.06-0.15,0.11-0.3,0.2c0.28-0.85,0.54-1.62,0.78-2.41c1.82-5.57,3.62-11.17,5.45-16.76
			c0.08-0.24,0.02-0.37-0.18-0.51c-5.32-3.86-10.64-7.73-15.95-11.59c-0.1-0.08-0.2-0.15-0.37-0.28c6.88,0,13.7,0,20.52,0
			c2.11-6.49,4.2-12.96,6.33-19.51c0.55,1.71,1.09,3.32,1.6,4.94c1.54,4.72,3.07,9.45,4.6,14.19c0.09,0.29,0.23,0.37,0.52,0.37
			c6.54,0,13.1,0,19.66,0c0.12,0,0.25,0,0.47,0c-0.16,0.13-0.24,0.21-0.34,0.28c-5.32,3.87-10.64,7.73-15.96,11.59
			c-0.24,0.17-0.28,0.31-0.19,0.58c2.04,6.25,4.08,12.51,6.1,18.76C133.6,488.35,133.63,488.44,133.68,488.63z"/>
		<path class="st2" d="M198.27,499.08c-0.67-0.49-1.31-0.96-1.95-1.41c-3.08-2.25-6.15-4.47-9.23-6.71c-0.17-0.13-0.27-0.12-0.42,0
			c-3.66,2.66-7.31,5.32-10.97,7.97c-0.04,0.03-0.09,0.07-0.21,0.13c0.19-0.57,0.37-1.12,0.54-1.65c1.24-3.85,2.49-7.68,3.75-11.52
			c0.06-0.17,0.01-0.26-0.13-0.36c-3.66-2.65-7.31-5.31-10.97-7.96c-0.08-0.04-0.14-0.11-0.25-0.19c4.73,0,9.42,0,14.11,0
			c1.44-4.47,2.89-8.92,4.35-13.41c0.37,1.17,0.73,2.28,1.09,3.39c1.06,3.26,2.12,6.51,3.16,9.76c0.07,0.2,0.16,0.26,0.36,0.26
			c4.5,0,9.01,0,13.52,0c0.08,0,0.17,0,0.31,0c-0.11,0.08-0.17,0.13-0.23,0.18c-3.64,2.67-7.3,5.32-10.96,7.97
			c-0.17,0.12-0.21,0.21-0.14,0.4c1.41,4.29,2.81,8.59,4.2,12.89C198.22,498.9,198.23,498.96,198.27,499.08z"/>
		<path class="st2" d="M465.32,488.93c1-0.72,1.93-1.4,2.86-2.07c4.46-3.24,8.94-6.49,13.39-9.75c0.26-0.19,0.41-0.16,0.64,0.01
			c5.31,3.88,10.62,7.74,15.94,11.6c0.07,0.05,0.16,0.11,0.3,0.21c-0.27-0.86-0.53-1.63-0.77-2.41c-1.82-5.6-3.63-11.18-5.46-16.77
			c-0.08-0.25-0.02-0.37,0.18-0.52c5.32-3.86,10.64-7.72,15.95-11.59c0.11-0.06,0.21-0.16,0.37-0.29c-6.87,0-13.7,0-20.52,0
			c-2.11-6.49-4.21-12.96-6.32-19.5c-0.58,1.7-1.1,3.32-1.63,4.94c-1.54,4.73-3.06,9.45-4.59,14.18c-0.09,0.29-0.22,0.37-0.52,0.37
			c-6.56,0-13.11,0-19.65,0c-0.13,0-0.25,0-0.48,0c0.16,0.13,0.25,0.21,0.35,0.29c5.31,3.86,10.62,7.72,15.95,11.58
			c0.24,0.18,0.28,0.32,0.18,0.59c-2.02,6.25-4.06,12.51-6.09,18.76C465.4,488.65,465.38,488.74,465.32,488.93z"/>
		<path class="st2" d="M400.74,499.4c0.68-0.5,1.32-0.98,1.93-1.43c3.08-2.24,6.16-4.46,9.23-6.7c0.17-0.12,0.29-0.11,0.44,0
			c3.65,2.66,7.3,5.32,10.96,7.98c0.05,0.03,0.11,0.07,0.2,0.13c-0.18-0.58-0.35-1.12-0.53-1.65c-1.24-3.83-2.49-7.68-3.74-11.52
			c-0.05-0.17-0.02-0.25,0.12-0.36c3.65-2.65,7.31-5.31,10.96-7.96c0.07-0.05,0.14-0.11,0.25-0.2c-4.72,0-9.42,0-14.1,0
			c-1.45-4.47-2.89-8.9-4.36-13.41c-0.36,1.17-0.73,2.28-1.1,3.4c-1.05,3.25-2.11,6.49-3.16,9.74c-0.07,0.2-0.16,0.26-0.35,0.26
			c-4.51-0.01-9.01-0.01-13.51-0.01c-0.09,0-0.19,0-0.33,0c0.11,0.09,0.17,0.14,0.24,0.19c3.65,2.66,7.3,5.32,10.96,7.97
			c0.16,0.12,0.18,0.22,0.13,0.41c-1.4,4.29-2.79,8.59-4.18,12.9C400.78,499.2,400.76,499.26,400.74,499.4z"/>
		<path class="st1" d="M502.32,231.2H92.67c-1.57,0-2.84-1.26-2.84-2.83c0-1.57,1.27-2.84,2.84-2.84h409.66
			c1.56,0,2.84,1.27,2.84,2.84C505.16,229.94,503.88,231.2,502.32,231.2z"/>
		<g>
			<path class="st1" d="M150.06,193.9h3.04c1.05,0,1.92-0.05,2.62-0.13c0.71-0.09,1.26-0.32,1.69-0.71c0.42-0.4,0.76-1.01,0.96-1.83
				c0.23-0.82,0.37-1.97,0.47-3.48h1.64v14.77h-1.64c-0.08-1.52-0.22-2.71-0.41-3.57c-0.17-0.88-0.47-1.54-0.89-1.99
				c-0.43-0.44-0.99-0.73-1.7-0.84c-0.7-0.12-1.62-0.18-2.74-0.18h-3.04v15.76h6.16c1.21,0,2.27-0.05,3.2-0.15
				c0.92-0.1,1.71-0.29,2.39-0.55c0.68-0.26,1.27-0.64,1.77-1.12c0.49-0.48,0.92-1.11,1.27-1.87c0.36-0.77,0.66-1.7,0.91-2.8
				c0.26-1.1,0.48-2.4,0.7-3.9h1.63l-0.47,12.37h-26.76v-2h4.65v-32.26h-4.65v-1.99h26.17l0.48,10h-1.63
				c-0.24-1.67-0.52-3.02-0.86-4.06c-0.34-1.03-0.81-1.84-1.43-2.44c-0.61-0.59-1.41-0.99-2.38-1.2c-0.99-0.21-2.25-0.31-3.76-0.31
				h-7.37V193.9z"/>
			<path class="st1" d="M189.5,202.85h1.64c0.16,1.89,0.51,3.48,1.03,4.74c0.5,1.25,1.14,2.26,1.9,3.01
				c0.75,0.75,1.61,1.28,2.57,1.59c0.98,0.31,2.01,0.45,3.1,0.45c1.3,0,2.41-0.16,3.34-0.51c0.91-0.35,1.69-0.84,2.28-1.46
				c0.6-0.63,1.04-1.38,1.3-2.24c0.28-0.88,0.41-1.83,0.41-2.88c0-1.3-0.2-2.37-0.6-3.21c-0.4-0.84-0.96-1.55-1.68-2.15
				c-0.73-0.58-1.59-1.1-2.6-1.53c-1.02-0.43-2.12-0.87-3.34-1.34c-1.21-0.47-2.36-0.95-3.46-1.47c-1.09-0.51-2.05-1.15-2.9-1.92
				c-0.84-0.76-1.5-1.7-2-2.81c-0.49-1.11-0.74-2.47-0.74-4.12c0-1.55,0.24-2.97,0.71-4.25c0.45-1.28,1.15-2.37,2.07-3.28
				c0.92-0.91,2.05-1.61,3.41-2.11c1.37-0.49,2.95-0.74,4.74-0.74c0.72,0,1.45,0.03,2.22,0.1c0.76,0.08,1.52,0.19,2.27,0.34
				c0.76,0.14,1.5,0.32,2.23,0.53c0.72,0.21,1.42,0.43,2.07,0.68l0.28,9.06h-1.63c-0.14-1.8-0.45-3.26-0.92-4.39
				c-0.49-1.13-1.06-2.02-1.75-2.66c-0.7-0.64-1.47-1.09-2.32-1.32c-0.84-0.24-1.7-0.36-2.59-0.36c-1.18,0-2.2,0.15-3.08,0.46
				c-0.88,0.3-1.59,0.74-2.17,1.32c-0.58,0.57-1,1.28-1.29,2.1c-0.29,0.82-0.44,1.75-0.44,2.79c0,1.23,0.21,2.25,0.62,3.06
				c0.4,0.82,0.97,1.53,1.71,2.11c0.73,0.59,1.62,1.11,2.66,1.58c1.04,0.45,2.18,0.93,3.41,1.43c1.14,0.46,2.27,0.96,3.36,1.48
				c1.09,0.53,2.06,1.18,2.91,1.97c0.87,0.79,1.57,1.76,2.09,2.91c0.52,1.16,0.79,2.6,0.79,4.31c0,1.66-0.27,3.14-0.8,4.43
				c-0.54,1.3-1.3,2.39-2.3,3.28c-1.01,0.88-2.23,1.55-3.66,2.02c-1.45,0.46-3.09,0.7-4.9,0.7c-0.8,0-1.61-0.04-2.46-0.13
				c-0.85-0.08-1.67-0.2-2.51-0.38c-0.84-0.17-1.65-0.36-2.44-0.57c-0.8-0.22-1.53-0.46-2.2-0.75L189.5,202.85z"/>
			<path class="st1" d="M258.05,202.85l-0.33,9.88c-0.74,0.28-1.56,0.54-2.42,0.76c-0.85,0.23-1.73,0.41-2.61,0.57
				c-0.88,0.16-1.76,0.29-2.62,0.37c-0.87,0.08-1.66,0.13-2.41,0.13c-2.37,0-4.51-0.44-6.41-1.3c-1.9-0.86-3.51-2.1-4.85-3.71
				c-1.33-1.6-2.34-3.56-3.06-5.85c-0.71-2.29-1.06-4.88-1.06-7.76c0-2.94,0.37-5.61,1.12-7.98c0.74-2.38,1.8-4.41,3.2-6.1
				c1.37-1.69,3.06-2.98,5.01-3.89c1.98-0.91,4.16-1.35,6.59-1.35c0.68,0,1.4,0.03,2.16,0.1c0.77,0.08,1.54,0.19,2.32,0.33
				c0.77,0.15,1.55,0.31,2.33,0.52c0.77,0.19,1.51,0.42,2.22,0.67l0.28,9.1h-1.62c-0.15-1.81-0.44-3.29-0.92-4.43
				c-0.48-1.14-1.07-2.03-1.78-2.66c-0.71-0.63-1.52-1.07-2.42-1.3c-0.9-0.23-1.86-0.35-2.87-0.35c-1.02,0-2.01,0.1-2.91,0.3
				c-0.92,0.2-1.77,0.54-2.54,1.05c-0.79,0.5-1.5,1.17-2.13,1.99c-0.63,0.84-1.16,1.89-1.59,3.17c-0.43,1.29-0.78,2.8-1.03,4.55
				c-0.23,1.76-0.36,3.8-0.36,6.13c0,2.3,0.13,4.32,0.36,6.04c0.23,1.72,0.57,3.2,0.98,4.45c0.43,1.25,0.95,2.28,1.57,3.08
				c0.6,0.81,1.29,1.44,2.06,1.91c0.75,0.47,1.57,0.8,2.45,0.99c0.87,0.18,1.81,0.28,2.79,0.28c1.19,0,2.27-0.15,3.27-0.44
				c1-0.29,1.9-0.8,2.66-1.53c0.76-0.74,1.41-1.72,1.91-2.97c0.51-1.25,0.85-2.83,1.04-4.76H258.05z"/>
			<path class="st1" d="M287.38,201.98c0,1.43,0.06,2.78,0.18,4.05c0.11,1.26,0.43,2.36,0.95,3.31c0.53,0.95,1.31,1.7,2.38,2.26
				c1.06,0.55,2.54,0.83,4.43,0.83c1.94,0,3.49-0.29,4.67-0.85c1.18-0.58,2.09-1.37,2.74-2.38c0.64-1,1.08-2.19,1.29-3.56
				c0.21-1.37,0.32-2.86,0.32-4.45v-21.73h-4.66v-1.99h11.39v1.99h-4.64v21.45c0,2.23-0.17,4.2-0.5,5.89
				c-0.34,1.7-0.97,3.13-1.84,4.27c-0.89,1.15-2.09,2.02-3.59,2.61c-1.52,0.59-3.43,0.89-5.76,0.89c-2.09,0-3.86-0.25-5.38-0.73
				c-1.49-0.48-2.73-1.22-3.7-2.24c-0.96-1.02-1.67-2.3-2.14-3.87c-0.46-1.58-0.67-3.44-0.67-5.61v-22.65h-4.67v-1.99h13.86v1.99
				h-4.66V201.98z"/>
			<path class="st1" d="M338.42,193.9h3.05c1.04,0,1.92-0.05,2.61-0.13c0.69-0.09,1.26-0.32,1.69-0.71c0.43-0.4,0.75-1.01,0.97-1.83
				c0.22-0.82,0.37-1.97,0.46-3.48h1.66v14.77h-1.66c-0.08-1.52-0.22-2.71-0.4-3.57c-0.19-0.88-0.5-1.54-0.9-1.99
				c-0.43-0.44-1-0.73-1.71-0.84c-0.68-0.12-1.61-0.18-2.73-0.18h-3.05v15.76h6.16c1.23,0,2.29-0.05,3.2-0.15
				c0.92-0.1,1.71-0.29,2.4-0.55c0.69-0.26,1.27-0.64,1.75-1.12c0.49-0.48,0.91-1.11,1.28-1.87c0.36-0.77,0.66-1.7,0.9-2.8
				c0.25-1.1,0.48-2.4,0.7-3.9h1.63l-0.46,12.37h-26.77v-2h4.66v-32.26h-4.66v-1.99h26.19l0.47,10h-1.64
				c-0.22-1.67-0.51-3.02-0.86-4.06c-0.34-1.03-0.82-1.84-1.44-2.44c-0.61-0.59-1.4-0.99-2.39-1.2c-0.98-0.21-2.24-0.31-3.73-0.31
				h-7.39V193.9z"/>
			<path class="st1" d="M391.48,211.7c1.21,0,2.27-0.05,3.19-0.15c0.92-0.1,1.72-0.29,2.41-0.56c0.69-0.27,1.29-0.66,1.79-1.15
				c0.49-0.49,0.93-1.12,1.28-1.91c0.37-0.78,0.67-1.73,0.92-2.86c0.26-1.12,0.49-2.45,0.69-3.99h1.64l-0.52,12.62h-26.05v-2h4.65
				v-32.26h-4.65v-1.99h13.85v1.99h-4.66v32.26H391.48z"/>
			<path class="st1" d="M431.13,211.7v2h-11.35v-2h4.43l12.1-34.62h1.84l11.38,34.62h4.61v2h-14.34v-2h4.85l-3.49-10.65h-11.01
				l-3.7,10.65H431.13z M435.81,184.96l-4.91,14.07h9.62l-4.62-14.07H435.81z"/>
		</g>
		<g>
			<path class="st1" d="M67.29,287.98v-1.97h4.59V254.3h-4.59v-1.96h13.84c3.08,0,5.68,0.42,7.76,1.23
				c2.09,0.82,3.75,1.98,5.03,3.49c1.27,1.51,2.17,3.34,2.71,5.48c0.55,2.14,0.82,4.54,0.82,7.19c0,1.53-0.09,3.05-0.28,4.55
				c-0.19,1.49-0.53,2.91-1,4.27c-0.48,1.35-1.12,2.6-1.9,3.76c-0.81,1.16-1.82,2.15-3.07,2.99c-1.23,0.84-2.71,1.5-4.42,1.97
				c-1.7,0.48-3.71,0.71-5.99,0.71H67.29z M76.34,286.02h4.14c2.36,0,4.31-0.25,5.86-0.74c1.55-0.49,2.77-1.34,3.67-2.57
				c0.91-1.23,1.54-2.89,1.9-4.98c0.38-2.1,0.55-4.75,0.55-7.95c0-1.75-0.05-3.36-0.17-4.81c-0.11-1.45-0.33-2.75-0.64-3.9
				c-0.29-1.14-0.73-2.14-1.26-2.99c-0.53-0.84-1.25-1.55-2.09-2.11c-0.84-0.54-1.87-0.96-3.08-1.25c-1.2-0.27-2.62-0.41-4.25-0.41
				h-4.63V286.02z"/>
			<path class="st1" d="M113.24,268.51h2.99c1.03,0,1.9-0.05,2.57-0.12c0.69-0.08,1.24-0.32,1.66-0.7c0.43-0.39,0.74-0.98,0.95-1.79
				c0.22-0.81,0.37-1.95,0.46-3.42h1.62v14.52h-1.62c-0.08-1.49-0.21-2.66-0.39-3.52c-0.17-0.86-0.48-1.51-0.89-1.95
				c-0.42-0.45-0.97-0.71-1.65-0.83c-0.7-0.12-1.6-0.18-2.7-0.18h-2.99v15.5h6.07c1.2,0,2.23-0.05,3.14-0.14
				c0.9-0.11,1.69-0.28,2.36-0.54c0.67-0.27,1.25-0.63,1.73-1.11c0.49-0.47,0.9-1.09,1.25-1.84c0.36-0.75,0.65-1.67,0.9-2.75
				c0.24-1.08,0.47-2.36,0.69-3.83h1.59l-0.44,12.17h-26.33v-1.97h4.58V254.3h-4.58v-1.96h25.75l0.46,9.84h-1.61
				c-0.24-1.63-0.52-2.96-0.84-3.98c-0.35-1.03-0.81-1.83-1.41-2.41c-0.61-0.58-1.4-0.97-2.36-1.18c-0.97-0.21-2.19-0.31-3.67-0.31
				h-7.26V268.51z"/>
			<path class="st1" d="M160.77,286.02v1.97H149.6v-1.97h4.35l11.92-34.04h1.81l11.18,34.04h4.54v1.97h-14.09v-1.97h4.77
				l-3.44-10.47h-10.81l-3.64,10.47H160.77z M165.37,259.72l-4.84,13.84H170l-4.55-13.84H165.37z"/>
			<path class="st1" d="M201.02,286.02c1.18,0,2.23-0.05,3.13-0.14c0.9-0.11,1.68-0.29,2.36-0.55c0.68-0.27,1.27-0.65,1.75-1.12
				c0.49-0.49,0.92-1.11,1.26-1.88c0.34-0.76,0.65-1.7,0.9-2.81c0.24-1.1,0.48-2.42,0.67-3.94h1.61l-0.5,12.41h-25.63v-1.97h4.57
				V254.3h-4.57v-1.96h13.63v1.96h-4.58v31.71H201.02z"/>
			<path class="st1" d="M216.12,252.34h26.85l0.55,10.57h-1.6c-0.22-1.83-0.49-3.3-0.83-4.43c-0.33-1.13-0.81-2-1.42-2.61
				c-0.62-0.61-1.41-1.03-2.39-1.24c-0.98-0.21-2.21-0.32-3.7-0.32h-1.84v31.71h5.03v1.97h-14.54v-1.97h5.04V254.3h-1.74
				c-0.99,0-1.87,0.05-2.65,0.12c-0.76,0.08-1.43,0.24-2,0.46c-0.58,0.24-1.07,0.55-1.47,0.96c-0.42,0.41-0.76,0.93-1.05,1.57
				c-0.3,0.63-0.54,1.4-0.74,2.3c-0.22,0.89-0.39,1.96-0.55,3.19h-1.6L216.12,252.34z"/>
			<path class="st1" d="M255.22,286.02v1.97h-11.14v-1.97h4.35l11.9-34.04h1.81l11.17,34.04h4.55v1.97h-14.1v-1.97h4.78l-3.44-10.47
				h-10.82l-3.64,10.47H255.22z M259.83,259.72L255,273.56h9.46l-4.53-13.84H259.83z"/>
			<path class="st1" d="M322.3,277.32l-0.33,9.71c-0.74,0.28-1.51,0.52-2.37,0.75c-0.84,0.22-1.7,0.41-2.57,0.56
				c-0.88,0.16-1.73,0.28-2.58,0.36c-0.85,0.08-1.63,0.12-2.37,0.12c-2.33,0-4.44-0.42-6.31-1.27c-1.88-0.85-3.47-2.06-4.76-3.64
				c-1.32-1.59-2.31-3.51-3.01-5.76c-0.7-2.26-1.04-4.81-1.04-7.63c0-2.9,0.37-5.5,1.09-7.84c0.73-2.35,1.78-4.34,3.14-6
				c1.35-1.66,3-2.93,4.94-3.83c1.92-0.9,4.08-1.33,6.47-1.33c0.67,0,1.39,0.03,2.13,0.11c0.76,0.07,1.52,0.19,2.28,0.32
				c0.77,0.13,1.54,0.3,2.29,0.5c0.76,0.2,1.5,0.42,2.19,0.67l0.27,8.95h-1.6c-0.14-1.78-0.43-3.23-0.9-4.35
				c-0.47-1.12-1.05-1.99-1.75-2.61c-0.71-0.62-1.49-1.05-2.38-1.28c-0.9-0.24-1.84-0.35-2.82-0.35c-1.02,0-1.97,0.1-2.87,0.3
				c-0.9,0.19-1.73,0.54-2.51,1.03c-0.77,0.49-1.46,1.14-2.1,1.95c-0.6,0.83-1.13,1.87-1.56,3.12c-0.43,1.25-0.76,2.75-1,4.47
				c-0.24,1.73-0.34,3.73-0.34,6.02c0,2.27,0.11,4.25,0.34,5.95c0.22,1.7,0.55,3.15,0.97,4.39c0.42,1.22,0.93,2.23,1.54,3.02
				c0.61,0.8,1.29,1.43,2.03,1.89c0.73,0.47,1.54,0.79,2.4,0.96c0.87,0.18,1.79,0.28,2.75,0.28c1.16,0,2.23-0.15,3.22-0.44
				c0.99-0.28,1.86-0.78,2.61-1.5c0.76-0.72,1.39-1.7,1.87-2.92c0.5-1.22,0.85-2.79,1.03-4.68H322.3z"/>
			<path class="st1" d="M330.3,270.49c0-2.93,0.38-5.56,1.12-7.9c0.74-2.34,1.77-4.33,3.09-5.97c1.33-1.65,2.91-2.91,4.76-3.8
				c1.83-0.88,3.86-1.32,6.06-1.32c2.17,0,4.13,0.43,5.92,1.28c1.78,0.86,3.29,2.08,4.57,3.66c1.27,1.59,2.25,3.52,2.94,5.77
				c0.7,2.26,1.04,4.78,1.04,7.58c0,2.75-0.33,5.29-1.02,7.62c-0.67,2.33-1.65,4.34-2.94,6.02c-1.28,1.69-2.85,3-4.72,3.95
				c-1.84,0.94-3.95,1.42-6.28,1.42c-2.19,0-4.19-0.42-5.98-1.27c-1.79-0.85-3.31-2.07-4.58-3.65c-1.27-1.59-2.24-3.51-2.95-5.78
				C330.65,275.85,330.3,273.3,330.3,270.49z M335.28,270.35c0,2.26,0.11,4.23,0.32,5.92c0.23,1.69,0.54,3.15,0.93,4.37
				c0.43,1.21,0.91,2.22,1.48,3.02c0.58,0.8,1.24,1.43,1.96,1.91c0.72,0.47,1.49,0.8,2.34,1c0.84,0.19,1.71,0.28,2.65,0.28
				c0.94,0,1.82-0.09,2.67-0.28c0.85-0.19,1.63-0.52,2.37-1.01c0.73-0.48,1.39-1.13,1.99-1.95c0.6-0.82,1.11-1.85,1.53-3.1
				c0.42-1.26,0.74-2.74,0.97-4.47c0.25-1.73,0.34-3.74,0.34-6.05c0-2.25-0.09-4.23-0.31-5.92c-0.22-1.69-0.53-3.16-0.94-4.38
				c-0.4-1.23-0.91-2.24-1.48-3.04c-0.58-0.8-1.21-1.44-1.94-1.92c-0.71-0.47-1.47-0.8-2.32-0.99c-0.85-0.19-1.73-0.29-2.67-0.29
				c-0.92,0-1.83,0.1-2.68,0.3c-0.85,0.19-1.65,0.53-2.38,1c-0.72,0.48-1.39,1.13-1.99,1.95c-0.59,0.83-1.11,1.86-1.52,3.1
				c-0.42,1.25-0.75,2.73-0.99,4.46C335.38,266.02,335.28,268.04,335.28,270.35z"/>
			<path class="st1" d="M393.48,277.32l-0.32,9.71c-0.74,0.28-1.51,0.52-2.36,0.75c-0.87,0.22-1.72,0.41-2.59,0.56
				c-0.87,0.16-1.73,0.28-2.58,0.36c-0.84,0.08-1.63,0.12-2.36,0.12c-2.35,0-4.45-0.42-6.32-1.27c-1.87-0.85-3.46-2.06-4.75-3.64
				c-1.32-1.59-2.3-3.51-3.01-5.76c-0.69-2.26-1.04-4.81-1.04-7.63c0-2.9,0.38-5.5,1.1-7.84c0.74-2.35,1.78-4.34,3.15-6
				c1.34-1.66,2.99-2.93,4.94-3.83c1.92-0.9,4.08-1.33,6.46-1.33c0.67,0,1.38,0.03,2.13,0.11c0.75,0.07,1.51,0.19,2.29,0.32
				c0.78,0.13,1.53,0.3,2.29,0.5c0.75,0.2,1.48,0.42,2.18,0.67l0.28,8.95h-1.6c-0.14-1.78-0.43-3.23-0.9-4.35
				c-0.46-1.12-1.05-1.99-1.75-2.61c-0.72-0.62-1.51-1.05-2.39-1.28c-0.89-0.24-1.83-0.35-2.83-0.35c-1,0-1.96,0.1-2.86,0.3
				c-0.9,0.19-1.75,0.54-2.5,1.03c-0.79,0.49-1.47,1.14-2.09,1.95c-0.62,0.83-1.14,1.87-1.57,3.12c-0.44,1.25-0.76,2.75-1.01,4.47
				c-0.23,1.73-0.35,3.73-0.35,6.02c0,2.27,0.12,4.25,0.35,5.95c0.22,1.7,0.55,3.15,0.98,4.39c0.42,1.22,0.93,2.23,1.54,3.02
				c0.6,0.8,1.27,1.43,2.02,1.89c0.74,0.47,1.54,0.79,2.41,0.96c0.87,0.18,1.78,0.28,2.76,0.28c1.15,0,2.22-0.15,3.22-0.44
				c0.99-0.28,1.85-0.78,2.61-1.5c0.76-0.72,1.38-1.7,1.87-2.92c0.5-1.22,0.84-2.79,1.02-4.68H393.48z"/>
			<path class="st1" d="M409.4,254.3v31.71h4.59v1.97h-13.64v-1.97h4.58V254.3h-4.58v-1.96h13.64v1.96H409.4z"/>
			<path class="st1" d="M447.28,288.35h-1.82l-19.83-32.89l-0.12,0.02v30.53h4.14v1.97h-10.77v-1.97h4.59V254.3h-4.59v-1.96h10.24
				l16,26.54l0.1-0.02V254.3h-4.58v-1.96h11.23v1.96h-4.59V288.35z"/>
			<path class="st1" d="M465.07,286.02v1.97H453.9v-1.97h4.36l11.91-34.04H472l11.16,34.04h4.55v1.97h-14.09v-1.97h4.76l-3.45-10.47
				h-10.81l-3.64,10.47H465.07z M469.68,259.72l-4.83,13.84h9.47l-4.55-13.84H469.68z"/>
			<path class="st1" d="M503.02,252.34h13.63v1.96h-4.21l8.48,14.21l8.34-14.21h-4.33v-1.96h10.68v1.96h-3.88l-9.81,16.64v15.08
				h5.03v1.97h-14.54v-1.97h5.05v-14.34l-10.38-17.37h-4.06V252.34z"/>
		</g>
		<g>
			<path class="st1" d="M86.61,347.55c-0.84,0.45-1.76,0.84-2.75,1.18c-0.97,0.33-1.95,0.61-2.95,0.82c-1.01,0.2-2,0.37-2.98,0.46
				c-0.98,0.11-1.89,0.16-2.73,0.16c-2.74,0-5.17-0.49-7.33-1.46c-2.16-0.98-3.98-2.37-5.49-4.18c-1.5-1.82-2.64-4.02-3.43-6.6
				c-0.79-2.59-1.19-5.51-1.19-8.75c0-3.32,0.44-6.32,1.29-9.01c0.87-2.69,2.08-4.98,3.68-6.88c1.59-1.9,3.52-3.37,5.77-4.39
				c2.25-1.02,4.77-1.53,7.55-1.53c1.59,0,3.29,0.17,5.1,0.49c1.8,0.33,3.51,0.78,5.14,1.34l0.32,10.28h-1.84
				c-0.16-2.05-0.5-3.71-1.05-5c-0.55-1.29-1.21-2.29-2.02-3c-0.81-0.71-1.73-1.2-2.75-1.46c-1.03-0.26-2.11-0.39-3.25-0.39
				c-1.19,0-2.31,0.12-3.38,0.34c-1.04,0.23-2.04,0.62-2.94,1.19c-0.91,0.56-1.74,1.32-2.46,2.25c-0.74,0.95-1.35,2.14-1.87,3.58
				c-0.51,1.44-0.91,3.16-1.17,5.14c-0.28,1.99-0.41,4.28-0.41,6.91c0,2.59,0.12,4.85,0.37,6.79c0.26,1.95,0.63,3.61,1.12,5.01
				c0.47,1.38,1.06,2.54,1.75,3.45c0.68,0.93,1.47,1.65,2.32,2.17c0.87,0.52,1.81,0.89,2.81,1.11c1.02,0.22,2.1,0.33,3.23,0.33
				c1.13,0,2.23-0.05,3.31-0.16c1.07-0.1,2.09-0.35,3.08-0.75v-12.47h-5.78v-2.24h15.65v2.24h-4.73V347.55z"/>
			<path class="st1" d="M112.97,346.96v2.26h-12.82v-2.26h5.01l13.66-39.06h2.07l12.83,39.06h5.2v2.26h-16.18v-2.26h5.48
				l-3.95-12.01h-12.41l-4.18,12.01H112.97z M118.24,316.79l-5.54,15.87h10.86l-5.2-15.87H118.24z"/>
			<path class="st1" d="M148.96,336.97h1.84c0.2,2.13,0.58,3.92,1.16,5.36c0.57,1.42,1.29,2.55,2.13,3.4
				c0.86,0.84,1.82,1.45,2.92,1.79c1.09,0.35,2.26,0.52,3.49,0.52c1.47,0,2.73-0.2,3.77-0.59c1.04-0.4,1.91-0.95,2.57-1.65
				c0.67-0.7,1.18-1.55,1.48-2.53c0.29-0.99,0.46-2.07,0.46-3.25c0-1.46-0.22-2.67-0.67-3.61c-0.47-0.95-1.09-1.75-1.92-2.41
				c-0.8-0.67-1.79-1.25-2.93-1.73c-1.14-0.49-2.39-1-3.75-1.52c-1.38-0.53-2.67-1.08-3.91-1.66c-1.23-0.58-2.33-1.3-3.27-2.17
				c-0.95-0.86-1.69-1.91-2.26-3.16c-0.55-1.25-0.82-2.8-0.82-4.66c0-1.74,0.26-3.33,0.78-4.78c0.52-1.45,1.31-2.68,2.35-3.7
				c1.04-1.02,2.3-1.82,3.84-2.38c1.53-0.56,3.32-0.84,5.35-0.84c0.81,0,1.64,0.05,2.5,0.13c0.86,0.08,1.71,0.2,2.56,0.38
				c0.84,0.16,1.68,0.37,2.51,0.6c0.83,0.23,1.6,0.49,2.34,0.77l0.32,10.22h-1.84c-0.16-2.03-0.51-3.68-1.05-4.96
				c-0.55-1.27-1.21-2.27-1.99-3c-0.78-0.71-1.64-1.21-2.6-1.49c-0.96-0.28-1.94-0.41-2.93-0.41c-1.34,0-2.5,0.17-3.47,0.52
				c-0.99,0.35-1.79,0.85-2.45,1.49c-0.64,0.65-1.13,1.44-1.46,2.37c-0.32,0.92-0.49,1.97-0.49,3.13c0,1.4,0.23,2.54,0.69,3.46
				c0.45,0.92,1.1,1.71,1.92,2.38c0.84,0.67,1.83,1.26,2.99,1.77c1.17,0.52,2.46,1.06,3.85,1.63c1.29,0.52,2.55,1.08,3.78,1.66
				c1.22,0.6,2.33,1.34,3.31,2.23c0.96,0.89,1.75,1.99,2.35,3.29c0.59,1.3,0.9,2.93,0.9,4.85c0,1.87-0.31,3.55-0.91,5.01
				c-0.61,1.47-1.46,2.7-2.61,3.69c-1.12,1-2.5,1.76-4.13,2.28c-1.62,0.53-3.46,0.79-5.51,0.79c-0.9,0-1.82-0.05-2.78-0.14
				c-0.96-0.09-1.9-0.24-2.84-0.43c-0.94-0.19-1.85-0.4-2.74-0.64c-0.9-0.25-1.74-0.53-2.5-0.85L148.96,336.97z"/>
			<path class="st1" d="M185.67,308.32h30.8l0.64,12.13h-1.84c-0.25-2.1-0.56-3.8-0.95-5.1c-0.39-1.29-0.94-2.29-1.63-2.99
				c-0.71-0.71-1.63-1.17-2.75-1.42c-1.13-0.25-2.53-0.37-4.23-0.37h-2.14v36.38h5.78v2.26h-16.68v-2.26h5.78v-36.38h-2
				c-1.14,0-2.15,0.05-3.03,0.14c-0.86,0.1-1.64,0.27-2.28,0.54c-0.67,0.26-1.24,0.62-1.71,1.09c-0.48,0.48-0.87,1.07-1.21,1.8
				c-0.33,0.74-0.63,1.62-0.85,2.65c-0.25,1.03-0.45,2.25-0.61,3.66h-1.86L185.67,308.32z"/>
			<path class="st1" d="M242.79,308.32c2.78,0,5.12,0.23,7.04,0.68c1.9,0.45,3.45,1.09,4.62,1.91c1.19,0.83,2.01,1.82,2.53,3
				c0.5,1.17,0.75,2.47,0.75,3.9c0,1.24-0.17,2.41-0.53,3.53c-0.36,1.1-0.9,2.09-1.62,3c-0.72,0.9-1.62,1.67-2.7,2.32
				c-1.07,0.65-2.34,1.14-3.79,1.49v0.1c1.2,0.31,2.2,0.74,2.97,1.33c0.78,0.58,1.42,1.29,1.9,2.14c0.49,0.84,0.86,1.81,1.12,2.89
				c0.29,1.07,0.52,2.26,0.73,3.55c0.21,1.34,0.4,2.55,0.57,3.65c0.17,1.1,0.39,2.04,0.66,2.84c0.29,0.8,0.66,1.42,1.15,1.86
				c0.48,0.45,1.14,0.66,2.01,0.66c0.15,0,0.38,0,0.66-0.02c0.29-0.02,0.62-0.06,0.96-0.12v2.17c-0.31,0.08-0.62,0.14-0.98,0.2
				c-0.36,0.07-0.7,0.1-1.06,0.12c-0.36,0.03-0.7,0.05-1.07,0.07c-0.33,0-0.63,0.01-0.89,0.01c-1.54,0-2.73-0.17-3.59-0.53
				c-0.88-0.34-1.54-0.89-1.99-1.62c-0.48-0.74-0.8-1.66-0.99-2.76c-0.19-1.11-0.38-2.42-0.55-3.94c-0.28-2.2-0.52-4.06-0.79-5.57
				c-0.26-1.5-0.63-2.7-1.12-3.61c-0.47-0.91-1.11-1.55-1.91-1.93c-0.8-0.4-1.9-0.59-3.27-0.59h-4.94v17.92h5.51v2.26h-15.9v-2.26
				h5.26v-36.38h-5.26v-2.25H242.79z M238.69,326.78h3.49c1.9,0,3.47-0.17,4.74-0.51c1.27-0.34,2.29-0.87,3.08-1.59
				c0.78-0.72,1.33-1.64,1.64-2.76c0.33-1.12,0.49-2.46,0.49-4.04c0-1.32-0.12-2.43-0.38-3.37c-0.27-0.92-0.76-1.69-1.46-2.26
				c-0.71-0.58-1.69-1.01-2.95-1.29c-1.25-0.28-2.88-0.41-4.87-0.41h-3.78V326.78z"/>
			<path class="st1" d="M273.42,329.15c0-3.36,0.43-6.38,1.28-9.06c0.84-2.69,2.02-4.97,3.56-6.85c1.53-1.89,3.34-3.34,5.45-4.35
				c2.11-1.01,4.44-1.53,6.95-1.53c2.49,0,4.77,0.49,6.8,1.48c2.04,0.98,3.79,2.39,5.24,4.2c1.45,1.82,2.58,4.03,3.37,6.62
				c0.8,2.58,1.19,5.48,1.19,8.69c0,3.15-0.38,6.07-1.16,8.74c-0.78,2.67-1.89,4.97-3.37,6.9c-1.47,1.94-3.27,3.44-5.4,4.53
				c-2.13,1.08-4.54,1.63-7.22,1.63c-2.53,0-4.81-0.49-6.86-1.46c-2.06-0.98-3.79-2.38-5.26-4.2c-1.45-1.82-2.57-4.02-3.38-6.62
				C273.81,335.29,273.42,332.38,273.42,329.15z M279.13,328.98c0,2.59,0.12,4.86,0.37,6.8c0.26,1.95,0.61,3.61,1.07,5.01
				c0.47,1.4,1.03,2.56,1.7,3.47c0.67,0.93,1.41,1.65,2.23,2.2c0.82,0.55,1.72,0.93,2.69,1.14c0.97,0.22,1.97,0.32,3.05,0.32
				c1.07,0,2.09-0.1,3.06-0.32c0.98-0.21,1.89-0.6,2.73-1.15c0.83-0.56,1.6-1.3,2.28-2.24c0.69-0.94,1.27-2.13,1.75-3.56
				c0.48-1.44,0.86-3.14,1.13-5.12c0.27-1.98,0.39-4.29,0.39-6.94c0-2.59-0.12-4.85-0.38-6.8c-0.25-1.94-0.6-3.62-1.08-5.03
				c-0.46-1.41-1.02-2.57-1.69-3.49c-0.67-0.92-1.4-1.65-2.22-2.19c-0.83-0.54-1.71-0.93-2.67-1.14c-0.96-0.22-1.99-0.33-3.04-0.33
				c-1.07,0-2.09,0.12-3.08,0.34c-0.98,0.23-1.89,0.61-2.74,1.16c-0.82,0.54-1.59,1.29-2.29,2.24c-0.67,0.95-1.25,2.13-1.75,3.56
				c-0.47,1.42-0.84,3.13-1.12,5.12C279.26,324.01,279.13,326.32,279.13,328.98z"/>
			<path class="st1" d="M352.5,349.63h-2.1l-22.74-37.73l-0.14,0.03v35.03h4.75v2.26h-12.35v-2.26h5.24v-36.38h-5.24v-2.25h11.74
				l18.35,30.45l0.13-0.03v-28.17h-5.27v-2.25h12.88v2.25h-5.26V349.63z"/>
			<path class="st1" d="M370.14,329.15c0-3.36,0.43-6.38,1.26-9.06c0.86-2.69,2.05-4.97,3.57-6.85c1.52-1.89,3.33-3.34,5.44-4.35
				c2.12-1.01,4.44-1.53,6.96-1.53c2.48,0,4.77,0.49,6.79,1.48c2.04,0.98,3.8,2.39,5.25,4.2c1.45,1.82,2.58,4.03,3.37,6.62
				c0.8,2.58,1.2,5.48,1.2,8.69c0,3.15-0.39,6.07-1.17,8.74c-0.79,2.67-1.91,4.97-3.37,6.9c-1.48,1.94-3.28,3.44-5.42,4.53
				c-2.11,1.08-4.53,1.63-7.21,1.63c-2.52,0-4.8-0.49-6.85-1.46c-2.06-0.98-3.8-2.38-5.26-4.2c-1.45-1.82-2.57-4.02-3.37-6.62
				C370.54,335.29,370.14,332.38,370.14,329.15z M375.84,328.98c0,2.59,0.12,4.86,0.37,6.8c0.26,1.95,0.61,3.61,1.08,5.01
				c0.46,1.4,1.04,2.56,1.71,3.47c0.67,0.93,1.41,1.65,2.22,2.2c0.82,0.55,1.72,0.93,2.68,1.14c0.97,0.22,1.99,0.32,3.05,0.32
				c1.07,0,2.1-0.1,3.07-0.32c0.97-0.21,1.87-0.6,2.72-1.15c0.83-0.56,1.59-1.3,2.28-2.24c0.67-0.94,1.27-2.13,1.75-3.56
				c0.48-1.44,0.85-3.14,1.12-5.12c0.26-1.98,0.4-4.29,0.4-6.94c0-2.59-0.13-4.85-0.38-6.8c-0.26-1.94-0.62-3.62-1.07-5.03
				c-0.48-1.41-1.05-2.57-1.7-3.49c-0.67-0.92-1.42-1.65-2.22-2.19c-0.82-0.54-1.7-0.93-2.67-1.14c-0.97-0.22-1.97-0.33-3.05-0.33
				c-1.06,0-2.09,0.12-3.07,0.34c-0.98,0.23-1.88,0.61-2.74,1.16c-0.83,0.54-1.59,1.29-2.27,2.24c-0.7,0.95-1.26,2.13-1.75,3.56
				c-0.49,1.42-0.86,3.13-1.11,5.12C375.96,324.01,375.84,326.32,375.84,328.98z"/>
			<path class="st1" d="M453.07,346.96V311.3h-0.13l-13.68,38.33h-2.06l-12.83-38.27h-0.14v35.59h4.73v2.26h-12.36v-2.26h5.26
				v-36.38h-5.26v-2.25h12.18l10.95,32.56h0.11l11.68-32.56h11.92v2.25h-5.26v36.38h5.26v2.26h-15.11v-2.26H453.07z"/>
			<path class="st1" d="M484.9,310.57v36.38h5.25v2.26h-15.64v-2.26h5.26v-36.38h-5.26v-2.25h15.64v2.25H484.9z M478.67,305.87
				c-0.43-0.35-0.78-0.81-1-1.35l9.06-9.43c0.56,0.47,1.1,1.02,1.59,1.65c0.5,0.63,0.95,1.32,1.35,2.04L478.67,305.87z"/>
			<path class="st1" d="M511.25,346.96v2.26h-12.79v-2.26h4.99l13.67-39.06h2.08l12.83,39.06h5.2v2.26h-16.17v-2.26h5.47
				l-3.95-12.01h-12.41L506,346.96H511.25z M516.53,316.79L511,332.66h10.85l-5.2-15.87H516.53z"/>
		</g>
	</g>
	<g>
		<path class="st2" d="M354.95,636.94c-8.75,1.35-17.61,0.59-26.27,2.12c-0.03,0.18-0.05,0.38-0.07,0.57
			c0.73,0.17,1.45,0.46,2.19,0.5c6.52,0.27,13.05,0.49,19.58,0.74c1.55,0.06,3.09,0.23,4.62,0.65c-8.76,1.28-17.69,0.35-26.38,2.04
			c-0.01,0.26-0.03,0.53-0.03,0.79c1.12,0.2,2.23,0.55,3.37,0.58c6.08,0.18,12.14,0.26,18.22,0.41c1.6,0.04,3.21,0.2,4.82,0.6
			c-8.73,1.47-17.69,0.66-26.36,2.61c4.34,1.33,8.79,1.19,13.22,1.23c4.4,0.05,8.78,0.02,13.18,0.02c0.04,0.25,0.06,0.52,0.11,0.76
			c-0.66,0.19-1.3,0.49-1.97,0.58c-10.52,1.46-21.11,2.05-31.73,1.64c-2.06-0.09-4.66-0.71-6.01-2.08
			c-4.75-4.82-10.31-4.5-16.29-3.87c-15.23,1.59-30.46,3.21-45.79,2.91c-3.25-0.06-6.5-0.6-9.75-0.91
			c-0.17-0.03-0.34-0.05-0.51-0.09c-2.52-0.63-4.35-2.6-4.36-4.69c-0.02-2.07,1.77-4.43,4.16-4.89c2.92-0.55,5.92-1.08,8.85-1.02
			c5.61,0.14,11.23,0.58,16.81,1.14c12.66,1.29,25.37,2.05,38.09,2.14c2.05,0.02,3.81-0.69,5.33-2.06c3.26-3,7.04-4.48,11.52-4.51
			c10.11-0.08,20.18,0.44,30.19,1.78C354.11,636.69,354.52,636.84,354.95,636.94z"/>
		<path class="st2" d="M321.56,673.93c-6.12,0-12.26,0.03-18.4-0.02c-1.14-0.02-2.33-0.08-3.4-0.44c-6.98-2.29-14.11-1.3-21.16-0.75
			c-7.99,0.64-15.92,1.98-23.91,2.67c-3.44,0.29-6.98-0.07-10.39-0.58c-2.95-0.45-4.35-2.53-4.29-5.18c0.06-2.7,1.65-4.79,4.67-4.99
			c4.2-0.29,8.5-0.42,12.66,0.12c11.5,1.47,23.03,2.49,34.62,2.44c1.54,0,3.18-0.49,4.58-1.17c4.59-2.15,9.15-4.39,14.32-4.48
			c4.48-0.09,8.95,0.04,13.42,0.32c7.55,0.45,15.1,1.09,22.45,3.06c1.92,0.5,3.79,1.29,5.59,2.14c1.12,0.51,2.48,1.42,2,2.82
			c-0.32,0.91-1.52,1.98-2.48,2.16c-3.87,0.76-7.78,1.54-11.71,1.71c-6.18,0.28-12.37,0.08-18.57,0.08
			C321.56,673.88,321.56,673.9,321.56,673.93z"/>
	</g>
</g>
</svg>
